<mxfile host="app.diagrams.net" modified="2023-10-02T13:43:24.850Z" agent="Mozilla/5.0 (Windows NT 10.0; Win64; x64) AppleWebKit/537.36 (KHTML, like Gecko) Chrome/109.0.0.0 Safari/537.36" etag="g4KCLhNcnjKvIrjQ8cRJ" version="22.0.0" type="github">
  <diagram name="Página-1" id="k4BwZP8B1K7mjlUxMOiA">
    <mxGraphModel dx="880" dy="449" grid="1" gridSize="10" guides="1" tooltips="1" connect="1" arrows="1" fold="1" page="1" pageScale="1" pageWidth="827" pageHeight="1169" math="0" shadow="0">
      <root>
        <mxCell id="0" />
        <mxCell id="1" parent="0" />
        <mxCell id="D8yysJE077WAH-sjz2yL-5" value="" style="edgeStyle=orthogonalEdgeStyle;rounded=0;orthogonalLoop=1;jettySize=auto;html=1;" edge="1" parent="1" source="D8yysJE077WAH-sjz2yL-3" target="D8yysJE077WAH-sjz2yL-4">
          <mxGeometry relative="1" as="geometry" />
        </mxCell>
        <mxCell id="D8yysJE077WAH-sjz2yL-3" value="ínicio" style="ellipse;whiteSpace=wrap;html=1;" vertex="1" parent="1">
          <mxGeometry x="360" y="40" width="120" height="40" as="geometry" />
        </mxCell>
        <mxCell id="D8yysJE077WAH-sjz2yL-11" value="" style="edgeStyle=orthogonalEdgeStyle;rounded=0;orthogonalLoop=1;jettySize=auto;html=1;" edge="1" parent="1" source="D8yysJE077WAH-sjz2yL-4" target="D8yysJE077WAH-sjz2yL-8">
          <mxGeometry relative="1" as="geometry" />
        </mxCell>
        <mxCell id="D8yysJE077WAH-sjz2yL-4" value="&quot;seja bem vindo(a)&quot;" style="shape=display;whiteSpace=wrap;html=1;" vertex="1" parent="1">
          <mxGeometry x="360" y="120" width="120" height="40" as="geometry" />
        </mxCell>
        <mxCell id="D8yysJE077WAH-sjz2yL-13" value="" style="edgeStyle=orthogonalEdgeStyle;rounded=0;orthogonalLoop=1;jettySize=auto;html=1;" edge="1" parent="1" source="D8yysJE077WAH-sjz2yL-8" target="D8yysJE077WAH-sjz2yL-12">
          <mxGeometry relative="1" as="geometry" />
        </mxCell>
        <mxCell id="D8yysJE077WAH-sjz2yL-8" value="&lt;br&gt;&lt;br&gt;&amp;nbsp;&quot;qual tema deseja ver?&quot;" style="shape=manualInput;whiteSpace=wrap;html=1;" vertex="1" parent="1">
          <mxGeometry x="360" y="200" width="120" height="80" as="geometry" />
        </mxCell>
        <mxCell id="D8yysJE077WAH-sjz2yL-12" value="&lt;br&gt;&quot;Selecione &lt;br&gt;os tipos &lt;br&gt;de ingresso&quot;" style="shape=manualInput;whiteSpace=wrap;html=1;" vertex="1" parent="1">
          <mxGeometry x="360" y="320" width="120" height="80" as="geometry" />
        </mxCell>
      </root>
    </mxGraphModel>
  </diagram>
</mxfile>
